<?xml version="1.0" encoding="UTF-8" standalone="no"?>
<!DOCTYPE svg PUBLIC "-//W3C//DTD SVG 1.1//EN" "http://www.w3.org/Graphics/SVG/1.1/DTD/svg11.dtd">
<svg width="100%" height="100%" viewBox="0 0 344 48" version="1.1" xmlns="http://www.w3.org/2000/svg" xmlns:xlink="http://www.w3.org/1999/xlink" xml:space="preserve" style="fill-rule:evenodd;clip-rule:evenodd;stroke-linejoin:round;stroke-miterlimit:1.41421;">
    <path id="Logo" d="M175.502,38.261C175.446,38.321 175.39,38.382 175.333,38.442C173.055,40.873 170.628,42.909 168.053,44.551C165.478,46.194 162.803,47.015 160.03,47.015C159.105,47.015 158.197,46.916 157.306,46.719C156.415,46.522 155.589,46.161 154.83,45.635C154.07,45.11 153.46,44.403 152.997,43.517C152.535,42.63 152.304,41.497 152.304,40.117C152.304,38.738 152.453,37.161 152.75,35.387C153.047,33.614 153.427,31.791 153.889,29.919C154.351,28.046 154.813,26.223 155.275,24.45C155.738,22.676 156.134,21.1 156.464,19.72C156.86,18.012 156.827,16.698 156.365,15.779C155.903,14.859 155.11,14.399 153.988,14.399C153.46,14.399 152.42,14.859 150.868,15.779C149.316,16.698 147.632,18.291 145.816,20.558C144,22.824 142.217,25.879 140.468,29.721C138.718,33.564 137.347,38.442 136.357,44.354C135.102,45.011 133.914,45.438 132.791,45.635C132.197,45.767 131.669,45.865 131.206,45.931C129.886,45.996 129.027,45.783 128.631,45.29C128.235,44.798 128.301,43.599 128.829,41.694C129.093,40.774 129.572,39.296 130.265,37.26C130.959,35.223 131.636,33.006 132.296,30.608C132.956,28.211 133.534,25.813 134.029,23.415C134.525,21.017 134.772,18.932 134.772,17.158C134.772,15.91 134.558,15.056 134.128,14.596C133.699,14.136 133.088,13.906 132.296,13.906C131.702,13.906 130.711,14.235 129.324,14.892C127.938,15.549 126.386,16.83 124.669,18.735C122.952,20.64 121.252,23.284 119.568,26.667C117.884,30.05 116.448,34.435 115.259,39.821L115.259,39.624L114.863,41.201C114.731,41.661 114.632,42.153 114.566,42.679C114.5,43.205 114.401,43.697 114.269,44.157L109.316,46.325C108.986,46.456 108.573,46.555 108.078,46.62C107.583,46.686 107.121,46.604 106.692,46.374C106.262,46.144 105.949,45.668 105.751,44.945C105.552,44.223 105.618,43.139 105.949,41.694L106.495,39.441C104.501,41.436 102.396,43.139 100.182,44.551C97.606,46.194 94.932,47.015 92.159,47.015C91.234,47.015 90.326,46.916 89.435,46.719C88.543,46.522 87.718,46.161 86.959,45.635C86.199,45.11 85.588,44.403 85.126,43.517C84.664,42.63 84.433,41.497 84.433,40.117C84.433,38.738 84.581,37.161 84.879,35.387C85.176,33.614 85.555,31.791 86.018,29.919C86.48,28.046 86.942,26.223 87.404,24.45C87.867,22.676 88.263,21.1 88.593,19.72C88.989,18.012 88.956,16.698 88.494,15.779C88.032,14.859 87.239,14.399 86.117,14.399C85.588,14.399 84.548,14.859 82.997,15.779C81.445,16.698 79.761,18.291 77.945,20.558C76.129,22.824 74.346,25.879 72.596,29.721C70.847,33.564 69.476,38.442 68.486,44.354C67.231,45.011 66.043,45.438 64.92,45.635C64.326,45.767 63.798,45.865 63.335,45.931C62.015,45.996 61.156,45.783 60.76,45.29C60.364,44.798 60.43,43.599 60.958,41.694C61.222,40.774 61.701,39.296 62.394,37.26C63.088,35.223 63.764,33.006 64.425,30.608C65.085,28.211 65.663,25.813 66.158,23.415C66.653,21.017 66.901,18.932 66.901,17.158C66.901,15.91 66.686,15.056 66.257,14.596C65.828,14.136 65.217,13.906 64.425,13.906C63.831,13.906 62.84,14.235 61.453,14.892C60.067,15.549 58.515,16.83 56.798,18.735C55.081,20.64 53.381,23.284 51.697,26.667C50.013,30.05 48.577,34.435 47.388,39.821L47.388,39.624L46.992,41.201C46.86,41.661 46.761,42.153 46.695,42.679C46.629,43.205 46.53,43.697 46.398,44.157L41.445,46.325C41.115,46.456 40.702,46.555 40.207,46.62C39.712,46.686 39.25,46.604 38.82,46.374C38.391,46.144 38.078,45.668 37.879,44.945C37.681,44.223 37.747,43.139 38.078,41.694L40.902,30.052C40.184,30.902 39.44,31.744 38.672,32.579C36.163,35.305 33.505,37.736 30.698,39.871C27.892,42.006 25.02,43.73 22.081,45.044C19.143,46.358 16.287,47.015 13.513,47.015C12.06,47.015 10.492,46.67 8.808,45.98C7.125,45.29 5.589,44.223 4.203,42.778C2.816,41.332 1.71,39.46 0.884,37.161C0.059,34.862 -0.189,32.07 0.142,28.785C0.406,26.092 1.248,23.251 2.667,20.262C4.087,17.273 5.837,14.53 7.917,12.034C9.997,9.538 12.341,7.469 14.949,5.826C17.558,4.184 20.183,3.363 22.824,3.363C25.333,3.363 27.149,3.987 28.272,5.235C29.394,6.483 29.889,8.027 29.757,9.866C29.559,11.903 28.982,13.775 28.024,15.483C27.067,17.191 25.927,18.735 24.607,20.114C23.286,21.494 21.883,22.742 20.397,23.859C18.911,24.975 17.508,25.994 16.188,26.913C14.735,27.899 13.348,28.835 12.027,29.721C10.707,30.608 9.551,31.413 8.561,32.136C8.627,33.778 8.924,35.157 9.452,36.274C9.98,37.391 10.641,38.294 11.433,38.984C12.226,39.674 13.134,40.166 14.157,40.462C15.181,40.758 16.221,40.905 17.277,40.905C19.522,40.905 21.866,40.199 24.31,38.787C26.753,37.374 29.147,35.667 31.491,33.663C33.835,31.659 36.014,29.574 38.028,27.406C39.955,25.332 41.565,23.528 42.857,21.995L44.318,15.976C44.516,15.122 44.681,14.301 44.813,13.512C44.945,12.79 45.028,12.083 45.061,11.394C45.094,10.704 45.044,10.129 44.912,9.669C46.035,9.144 47.025,8.75 47.884,8.487C48.742,8.224 49.435,8.027 49.964,7.896C50.624,7.699 51.185,7.6 51.647,7.6C53.76,7.6 54.454,9.407 53.727,13.02C53.463,14.071 53.067,15.614 52.539,17.651C53.793,16.074 55.131,14.58 56.55,13.167C57.97,11.755 59.406,10.49 60.859,9.374C62.312,8.257 63.781,7.37 65.267,6.713C66.753,6.056 68.222,5.728 69.674,5.728C70.797,5.728 71.738,6.056 72.497,6.713C73.257,7.37 73.851,8.241 74.28,9.324C74.709,10.408 74.957,11.689 75.023,13.167C75.089,14.645 75.023,16.173 74.825,17.749C75.882,16.37 77.054,14.974 78.341,13.561C79.629,12.149 80.983,10.885 82.402,9.768C83.822,8.651 85.291,7.731 86.81,7.009C88.329,6.286 89.848,5.925 91.366,5.925C93.149,5.925 94.519,6.45 95.477,7.501C96.434,8.553 97.095,9.899 97.458,11.541C97.821,13.184 97.92,14.957 97.755,16.862C97.59,18.768 97.309,20.607 96.913,22.381L93.545,35.683C92.819,38.968 93.512,40.61 95.626,40.61C97.276,40.61 99.092,39.821 101.073,38.245C103.054,36.668 104.986,34.796 106.868,32.628C107.479,31.924 108.079,31.212 108.666,30.493L112.189,15.976C112.387,15.122 112.552,14.301 112.684,13.512C112.816,12.79 112.899,12.083 112.932,11.394C112.965,10.704 112.915,10.129 112.783,9.669C113.906,9.144 114.896,8.75 115.755,8.487C116.613,8.224 117.306,8.027 117.835,7.896C118.495,7.699 119.056,7.6 119.518,7.6C121.632,7.6 122.325,9.407 121.599,13.02C121.334,14.071 120.938,15.614 120.41,17.651C121.665,16.074 123.002,14.58 124.421,13.167C125.841,11.755 127.277,10.49 128.73,9.374C130.183,8.257 131.652,7.37 133.138,6.713C134.624,6.056 136.093,5.728 137.546,5.728C138.668,5.728 139.609,6.056 140.368,6.713C141.128,7.37 141.722,8.241 142.151,9.324C142.581,10.408 142.828,11.689 142.894,13.167C142.96,14.645 142.894,16.173 142.696,17.749C143.753,16.37 144.925,14.974 146.212,13.561C147.5,12.149 148.854,10.885 150.273,9.768C151.693,8.651 153.162,7.731 154.681,7.009C156.2,6.286 157.719,5.925 159.237,5.925C161.02,5.925 162.391,6.45 163.348,7.501C164.306,8.553 164.966,9.899 165.329,11.541C165.692,13.184 165.791,14.957 165.626,16.862C165.461,18.768 165.18,20.607 164.784,22.381L161.417,35.683C160.69,38.968 161.384,40.61 163.497,40.61C165.147,40.61 166.963,39.821 168.944,38.245C170.925,36.668 172.857,34.796 174.739,32.628C175.057,32.262 175.371,31.894 175.683,31.524C175.807,30.834 175.96,30.118 176.142,29.377C177.066,25.369 178.536,21.724 180.55,18.439C182.564,15.154 184.759,12.346 187.136,10.014C189.514,7.682 191.858,5.925 194.169,4.742C196.48,3.56 198.395,3.035 199.914,3.166C201.697,3.494 203.15,4.02 204.272,4.742C205.197,5.399 205.807,6.368 206.105,7.649C206.402,8.93 205.857,10.622 204.47,12.724C205.395,12.527 206.171,12.395 206.798,12.33C207.425,12.264 207.904,12.231 208.234,12.231C208.63,12.231 208.894,12.264 209.026,12.33C209.093,12.461 209.126,12.74 209.126,13.167C209.126,13.594 209.027,14.366 208.828,15.483C208.63,16.6 208.333,18.111 207.937,20.016C207.541,21.921 207.012,24.384 206.352,27.406C206.22,27.997 206.105,28.539 206.005,29.032L204.866,34.698C204.8,35.289 204.784,35.929 204.817,36.619C204.85,37.309 204.965,37.949 205.164,38.54C205.362,39.132 205.675,39.608 206.105,39.969C206.534,40.331 207.145,40.511 207.937,40.511C208.597,40.511 209.456,40.101 210.512,39.28C211.569,38.458 212.691,37.407 213.88,36.126C215.069,34.845 216.307,33.433 217.594,31.889C218.882,30.346 220.087,28.851 221.21,27.406C222.332,25.961 223.339,24.68 224.231,23.563C225.122,22.446 225.766,21.625 226.162,21.1C226.69,20.508 227.219,20.163 227.747,20.065C228.275,19.966 228.671,20.114 228.936,20.508C229.2,20.902 229.249,21.494 229.084,22.282C228.919,23.07 228.44,23.99 227.648,25.041C226.723,26.355 225.535,27.981 224.082,29.919C222.629,31.856 221.127,33.794 219.575,35.732C218.024,37.67 216.505,39.444 215.019,41.053C213.533,42.663 212.295,43.796 211.305,44.453C210.644,44.847 209.885,45.175 209.026,45.438C208.168,45.701 207.293,45.865 206.402,45.931C205.51,45.996 204.668,45.947 203.876,45.783C203.084,45.619 202.39,45.34 201.796,44.945C201.202,44.486 200.706,43.829 200.31,42.975C199.98,42.252 199.666,41.3 199.369,40.117C199.072,38.935 198.956,37.457 199.022,35.683C197.438,38.311 195.688,40.331 193.773,41.743C191.858,43.155 190.042,44.19 188.325,44.847C186.344,45.569 184.363,45.996 182.382,46.128C181.458,46.128 180.467,45.816 179.411,45.192C178.354,44.568 177.463,43.582 176.736,42.236C176.157,41.161 175.746,39.836 175.502,38.261ZM20.051,8.98C19.258,8.98 18.317,9.374 17.228,10.162C16.138,10.95 15.065,12.083 14.008,13.561C12.952,15.04 11.961,16.846 11.037,18.981C10.113,21.116 9.419,23.563 8.957,26.322C9.749,25.731 10.608,25.123 11.532,24.499C12.457,23.875 13.381,23.202 14.306,22.479C17.145,20.311 19.126,18.406 20.249,16.764C21.371,15.122 21.998,13.709 22.131,12.527C22.263,11.279 22.131,10.375 21.734,9.817C21.338,9.259 20.777,8.98 20.051,8.98ZM198.626,29.377C198.956,28.063 199.353,26.519 199.815,24.745C200.277,22.972 200.673,21.264 201.003,19.621C201.334,17.979 201.581,16.616 201.746,15.532C201.911,14.448 201.862,13.939 201.598,14.005C201.268,14.071 200.904,14.169 200.508,14.301C200.178,14.432 199.749,14.53 199.221,14.596C198.692,14.662 198.164,14.76 197.636,14.892C198.164,13.841 198.478,12.97 198.577,12.281C198.676,11.591 198.692,11.049 198.626,10.655C198.56,10.195 198.428,9.834 198.23,9.571C197.504,8.98 196.233,9.456 194.417,11C192.601,12.543 190.504,15.384 188.127,19.523C187.136,21.231 186.344,23.054 185.75,24.992C185.155,26.93 184.743,28.753 184.512,30.46C184.281,32.168 184.231,33.663 184.363,34.944C184.495,36.225 184.759,37.062 185.155,37.457C185.882,38.179 186.707,38.524 187.632,38.491C188.556,38.458 189.497,38.196 190.455,37.703C191.412,37.21 192.37,36.57 193.327,35.781C194.285,34.993 195.143,34.172 195.902,33.318C196.662,32.464 197.289,31.676 197.784,30.953C198.28,30.231 198.56,29.705 198.626,29.377ZM285.757,23.025C284.942,24.052 283.96,25.233 282.813,26.568C280.865,28.835 278.719,31.052 276.375,33.22C274.031,35.387 271.62,37.276 269.144,38.885C266.668,40.495 264.406,41.3 262.359,41.3C261.237,41.3 260.081,41.135 258.893,40.807C257.704,40.478 256.614,39.92 255.624,39.132C254.633,38.343 253.808,37.26 253.148,35.88C252.487,34.5 252.19,32.727 252.256,30.559C252.322,26.815 252.983,23.53 254.237,20.705C255.492,17.881 256.928,15.532 258.546,13.66C260.164,11.788 261.749,10.375 263.3,9.423C264.852,8.47 265.925,7.994 266.519,7.994C267.114,7.994 267.543,8.158 267.807,8.487C268.071,8.815 268.203,9.209 268.203,9.669C268.203,10.129 268.088,10.556 267.857,10.95C267.625,11.344 267.312,11.64 266.916,11.837L265.529,12.527C265.133,12.724 264.77,13.052 264.439,13.512C264.307,13.775 264.192,14.301 264.093,15.089C263.994,15.877 263.994,16.682 264.093,17.503C264.192,18.324 264.456,19.047 264.885,19.671C265.314,20.295 265.958,20.607 266.817,20.607C267.873,20.607 268.847,20.344 269.739,19.819C270.63,19.293 271.406,18.587 272.066,17.7C272.727,16.813 273.255,15.795 273.651,14.645C274.047,13.496 274.245,12.33 274.245,11.147C274.311,8.651 273.601,6.68 272.116,5.235C270.63,3.79 268.831,3.067 266.718,3.067C262.954,3.067 259.685,4.069 256.912,6.073C254.138,8.076 251.844,10.474 250.028,13.266C248.212,16.058 246.842,18.965 245.917,21.986C244.993,25.008 244.53,27.537 244.53,29.574C244.53,31.61 244.761,33.663 245.224,35.732C245.686,37.801 246.495,39.69 247.65,41.398C248.806,43.106 250.358,44.502 252.306,45.586C254.254,46.67 256.68,47.212 259.586,47.212C261.699,47.212 263.845,46.735 266.024,45.783C268.203,44.83 270.316,43.615 272.363,42.137C274.41,40.659 276.375,39.017 278.257,37.21C280.139,35.404 281.823,33.63 283.308,31.889C284.419,30.588 285.419,29.36 286.309,28.205C286.479,28.064 286.651,27.896 286.825,27.701C287.155,27.307 287.749,26.568 288.608,25.484C289.466,24.401 290.374,23.218 291.331,21.937C292.289,20.656 293.18,19.424 294.006,18.242C294.831,17.06 295.409,16.206 295.739,15.68C295.871,15.943 296.053,16.419 296.284,17.109C296.515,17.799 296.763,18.505 297.027,19.227C297.291,20.081 297.621,21.001 298.017,21.986C298.479,23.3 299.041,24.745 299.701,26.322C300.361,27.899 300.972,29.459 301.534,31.002C302.095,32.546 302.508,33.991 302.772,35.338C303.036,36.685 303.036,37.719 302.772,38.442C302.508,39.165 302.095,39.756 301.534,40.216C300.972,40.675 300.378,41.037 299.751,41.3C299.123,41.562 298.496,41.694 297.869,41.694C297.241,41.694 296.73,41.562 296.333,41.3C296.003,41.037 295.64,40.544 295.244,39.821C294.914,39.165 294.484,38.261 293.956,37.112C293.428,35.962 292.834,34.369 292.173,32.333L290.093,33.022C289.499,33.22 289.037,33.417 288.707,33.614C288.31,33.876 287.98,34.106 287.716,34.303C287.056,34.895 286.56,35.42 286.23,35.88C285.9,36.34 285.537,36.964 285.141,37.752C284.811,38.343 284.86,39.197 285.289,40.314C285.719,41.431 286.379,42.564 287.27,43.714C288.162,44.863 289.251,45.865 290.539,46.719C291.827,47.573 293.164,48 294.551,48C296.532,48 298.43,47.474 300.246,46.423C302.062,45.372 303.68,44.108 305.099,42.63C306.519,41.152 307.708,39.624 308.665,38.048C309.623,36.471 310.2,35.125 310.398,34.008C310.531,33.285 310.431,32.398 310.101,31.347C309.771,30.296 309.342,29.163 308.814,27.948C308.285,26.733 307.691,25.501 307.031,24.253C306.37,23.005 305.743,21.789 305.149,20.607C304.687,19.687 304.257,18.669 303.861,17.552C303.531,16.633 303.184,15.549 302.821,14.301C302.458,13.052 302.177,11.673 301.979,10.162C302.97,8.98 303.729,8.011 304.257,7.255C304.786,6.5 305.182,5.859 305.446,5.334C305.71,4.808 305.908,4.381 306.04,4.053C306.172,3.396 305.974,2.755 305.446,2.131C304.918,1.507 304.224,0.932 303.366,0.407C302.309,-0.119 301.121,-0.135 299.8,0.358C298.479,0.85 297.192,1.589 295.937,2.575C294.683,3.56 293.593,4.66 292.669,5.876C291.744,7.091 291.15,8.158 290.886,9.078C290.555,10.195 290.638,11.18 291.133,12.034C291.629,12.888 291.81,13.578 291.678,14.103C291.612,14.301 291.249,14.875 290.589,15.828C289.928,16.78 289.202,17.864 288.409,19.08C287.617,20.295 286.825,21.477 286.032,22.627C285.938,22.764 285.846,22.897 285.757,23.025ZM230.994,37.161C232.71,36.898 234.081,37.046 235.104,37.604C236.128,38.163 236.573,39.197 236.441,40.708C236.375,41.562 236.029,42.367 235.401,43.122C234.774,43.878 234.015,44.551 233.123,45.142C232.232,45.734 231.291,46.193 230.3,46.522C229.31,46.85 228.451,47.015 227.725,47.015C226.404,47.015 225.232,46.719 224.209,46.128C223.185,45.537 222.739,44.584 222.871,43.27C222.937,42.416 223.218,41.644 223.713,40.955C224.209,40.265 224.836,39.657 225.595,39.132C226.355,38.606 227.213,38.179 228.171,37.851C229.128,37.522 230.069,37.292 230.994,37.161ZM329.878,41.3C330.274,41.562 330.786,41.694 331.414,41.694C332.041,41.694 332.668,41.562 333.295,41.3C333.923,41.037 334.517,40.675 335.078,40.216C335.64,39.756 336.052,39.165 336.317,38.442C336.581,37.719 336.581,36.685 336.317,35.338C336.052,33.991 335.64,32.546 335.078,31.002C334.517,29.459 333.906,27.899 333.246,26.322C332.586,24.745 332.024,23.3 331.562,21.986C331.166,21.001 330.836,20.081 330.572,19.227C330.307,18.505 330.06,17.799 329.829,17.109C329.598,16.419 329.416,15.943 329.284,15.68C328.954,16.206 328.376,17.06 327.551,18.242C326.725,19.424 325.834,20.656 324.876,21.937C323.919,23.218 323.011,24.401 322.152,25.484C321.294,26.568 320.7,27.307 320.369,27.701C319.841,28.293 319.329,28.638 318.834,28.736C318.339,28.835 317.926,28.736 317.596,28.44C317.266,28.145 317.084,27.718 317.051,27.16C317.018,26.601 317.266,25.928 317.794,25.14C318.19,24.614 318.785,23.776 319.577,22.627C320.369,21.477 321.162,20.295 321.954,19.08C322.747,17.864 323.473,16.78 324.133,15.828C324.794,14.875 325.157,14.301 325.223,14.103C325.355,13.578 325.173,12.888 324.678,12.034C324.183,11.18 324.1,10.195 324.431,9.078C324.695,8.158 325.289,7.091 326.213,5.876C327.138,4.66 328.227,3.56 329.482,2.575C330.737,1.589 332.024,0.85 333.345,0.358C334.666,-0.135 335.854,-0.119 336.911,0.407C337.769,0.932 338.463,1.507 338.991,2.131C339.519,2.755 339.717,3.396 339.585,4.053C339.453,4.381 339.255,4.808 338.991,5.334C338.727,5.859 338.331,6.5 337.802,7.255C337.274,8.011 336.515,8.98 335.524,10.162C335.722,11.673 336.003,13.052 336.366,14.301C336.729,15.549 337.076,16.633 337.406,17.552C337.802,18.669 338.231,19.687 338.694,20.607C339.288,21.789 339.915,23.005 340.576,24.253C341.236,25.501 341.83,26.733 342.359,27.948C342.887,29.163 343.316,30.296 343.646,31.347C343.976,32.398 344.075,33.285 343.943,34.008C343.745,35.125 343.167,36.471 342.21,38.048C341.252,39.624 340.064,41.152 338.644,42.63C337.224,44.108 335.607,45.372 333.791,46.423C331.975,47.474 330.076,48 328.095,48C326.709,48 325.372,47.573 324.084,46.719C322.796,45.865 321.707,44.863 320.815,43.714C319.924,42.564 319.263,41.431 318.834,40.314C318.405,39.197 318.355,38.343 318.686,37.752C319.082,36.964 319.445,36.34 319.775,35.88C320.105,35.42 320.601,34.895 321.261,34.303C321.525,34.106 321.855,33.876 322.251,33.614C322.582,33.417 323.044,33.22 323.638,33.022L325.718,32.333C326.379,34.369 326.973,35.962 327.501,37.112C328.029,38.261 328.459,39.165 328.789,39.821C329.185,40.544 329.548,41.037 329.878,41.3Z" style="fill:rgb(114,129,132);"/>
</svg>
