<?xml version="1.0" encoding="UTF-8" standalone="no"?>
<!DOCTYPE svg PUBLIC "-//W3C//DTD SVG 1.1//EN" "http://www.w3.org/Graphics/SVG/1.1/DTD/svg11.dtd">
<svg width="100%" height="100%" viewBox="0 0 2000 600" version="1.1" xmlns="http://www.w3.org/2000/svg" xmlns:xlink="http://www.w3.org/1999/xlink" xml:space="preserve" style="fill-rule:evenodd;clip-rule:evenodd;stroke-linejoin:round;stroke-miterlimit:1.41421;">
    <path id="Logo" d="M1007,328.521C1006.89,328.643 1006.78,328.763 1006.67,328.884C1002.11,333.745 997.257,337.818 992.106,341.102C986.955,344.387 981.607,346.029 976.06,346.029C974.211,346.029 972.395,345.832 970.612,345.438C968.829,345.044 967.178,344.321 965.66,343.27C964.141,342.219 962.919,340.807 961.995,339.033C961.07,337.26 960.608,334.993 960.608,332.234C960.608,329.475 960.905,326.322 961.499,322.775C962.094,319.227 962.853,315.582 963.778,311.837C964.702,308.093 965.627,304.447 966.551,300.9C967.476,297.352 968.268,294.199 968.928,291.44C969.721,288.024 969.655,285.396 968.73,283.557C967.806,281.718 966.221,280.798 963.976,280.798C962.919,280.798 960.839,281.718 957.736,283.557C954.632,285.396 951.264,288.582 947.633,293.115C944.001,297.648 940.435,303.757 936.935,311.443C933.435,319.129 930.695,328.884 928.714,340.708C926.205,342.022 923.828,342.876 921.582,343.27C920.394,343.533 919.337,343.73 918.413,343.861C915.771,343.993 914.055,343.566 913.262,342.58C912.47,341.595 912.602,339.197 913.658,335.387C914.187,333.548 915.144,330.592 916.531,326.519C917.918,322.446 919.271,318.012 920.592,313.217C921.913,308.421 923.068,303.626 924.059,298.83C925.049,294.035 925.544,289.863 925.544,286.316C925.544,283.82 925.115,282.112 924.257,281.192C923.398,280.273 922.177,279.813 920.592,279.813C919.403,279.813 917.422,280.47 914.649,281.783C911.876,283.097 908.772,285.659 905.338,289.469C901.905,293.279 898.504,298.567 895.136,305.334C891.768,312.1 888.896,320.87 886.519,331.643L886.519,331.249L885.726,334.402C885.462,335.322 885.264,336.307 885.132,337.358C885,338.409 884.802,339.394 884.538,340.314L874.633,344.65C873.972,344.913 873.147,345.11 872.157,345.241C871.166,345.372 870.242,345.208 869.383,344.748C868.525,344.288 867.897,343.336 867.501,341.891C867.105,340.446 867.237,338.278 867.897,335.387L868.991,330.881C865.001,334.871 860.792,338.278 856.364,341.102C851.213,344.387 845.864,346.029 840.318,346.029C838.469,346.029 836.653,345.832 834.87,345.438C833.087,345.044 831.436,344.321 829.917,343.27C828.399,342.219 827.177,340.807 826.252,339.033C825.328,337.26 824.866,334.993 824.866,332.234C824.866,329.475 825.163,326.322 825.757,322.775C826.352,319.227 827.111,315.582 828.035,311.837C828.96,308.093 829.884,304.447 830.809,300.9C831.733,297.352 832.526,294.199 833.186,291.44C833.978,288.024 833.912,285.396 832.988,283.557C832.063,281.718 830.479,280.798 828.233,280.798C827.177,280.798 825.097,281.718 821.993,283.557C818.89,285.396 815.522,288.582 811.89,293.115C808.258,297.648 804.693,303.757 801.193,311.443C797.693,319.129 794.953,328.884 792.972,340.708C790.462,342.022 788.085,342.876 785.84,343.27C784.652,343.533 783.595,343.73 782.671,343.861C780.029,343.993 778.312,343.566 777.52,342.58C776.728,341.595 776.86,339.197 777.916,335.387C778.444,333.548 779.402,330.592 780.789,326.519C782.175,322.446 783.529,318.012 784.85,313.217C786.17,308.421 787.326,303.626 788.316,298.83C789.307,294.035 789.802,289.863 789.802,286.316C789.802,283.82 789.373,282.112 788.514,281.192C787.656,280.273 786.434,279.813 784.85,279.813C783.661,279.813 781.68,280.47 778.907,281.783C776.133,283.097 773.03,285.659 769.596,289.469C766.162,293.279 762.762,298.567 759.394,305.334C756.026,312.1 753.154,320.87 750.777,331.643L750.777,331.249L749.984,334.402C749.72,335.322 749.522,336.307 749.39,337.358C749.258,338.409 749.06,339.394 748.796,340.314L738.891,344.65C738.23,344.913 737.405,345.11 736.414,345.241C735.424,345.372 734.499,345.208 733.641,344.748C732.782,344.288 732.155,343.336 731.759,341.891C731.363,340.446 731.495,338.278 732.155,335.387L737.805,312.104C736.367,313.804 734.88,315.489 733.344,317.158C728.325,322.61 723.01,327.472 717.397,331.741C711.784,336.011 706.039,339.46 700.162,342.088C694.285,344.715 688.573,346.029 683.026,346.029C680.121,346.029 676.984,345.34 673.617,343.96C670.249,342.58 667.178,340.446 664.405,337.555C661.632,334.665 659.42,330.92 657.769,326.322C656.118,321.724 655.623,316.14 656.283,309.571C656.811,304.184 658.495,298.502 661.335,292.524C664.174,286.546 667.674,281.061 671.834,276.068C675.994,271.076 680.682,266.937 685.899,263.653C691.116,260.368 696.365,258.726 701.648,258.726C706.666,258.726 710.298,259.974 712.543,262.47C714.788,264.967 715.779,268.054 715.515,271.733C715.119,275.806 713.963,279.55 712.048,282.966C710.133,286.382 707.855,289.469 705.214,292.228C702.572,294.987 699.766,297.484 696.794,299.717C693.823,301.951 691.016,303.987 688.375,305.826C685.47,307.797 682.696,309.669 680.055,311.443C677.414,313.217 675.102,314.826 673.121,316.271C673.254,319.556 673.848,322.315 674.904,324.548C675.961,326.782 677.282,328.588 678.866,329.968C680.451,331.347 682.267,332.333 684.314,332.924C686.361,333.515 688.441,333.811 690.554,333.811C695.045,333.811 699.733,332.398 704.619,329.574C709.506,326.749 714.293,323.333 718.982,319.326C723.67,315.319 728.028,311.147 732.056,306.812C735.91,302.663 739.13,299.056 741.714,295.99L744.635,283.951C745.032,282.243 745.362,280.601 745.626,279.024C745.89,277.579 746.055,276.167 746.121,274.787C746.187,273.408 746.088,272.258 745.824,271.339C748.069,270.288 750.05,269.499 751.767,268.974C753.484,268.448 754.871,268.054 755.927,267.791C757.248,267.397 758.37,267.2 759.295,267.2C763.521,267.2 764.908,270.813 763.455,278.039C762.927,280.141 762.134,283.229 761.078,287.302C763.587,284.148 766.261,281.159 769.101,278.335C771.94,275.51 774.813,272.981 777.718,270.747C780.624,268.514 783.562,266.74 786.533,265.426C789.505,264.113 792.443,263.456 795.349,263.456C797.594,263.456 799.476,264.113 800.995,265.426C802.514,266.74 803.702,268.481 804.561,270.649C805.419,272.817 805.914,275.379 806.046,278.335C806.178,281.291 806.046,284.345 805.65,287.499C807.763,284.74 810.107,281.948 812.683,279.123C815.258,276.298 817.965,273.769 820.805,271.536C823.644,269.302 826.583,267.463 829.62,266.018C832.658,264.572 835.695,263.85 838.733,263.85C842.299,263.85 845.039,264.901 846.954,267.003C848.869,269.105 850.19,271.798 850.916,275.083C851.642,278.368 851.84,281.915 851.51,285.725C851.18,289.535 850.619,293.214 849.826,296.761L843.091,323.366C841.638,329.935 843.025,333.22 847.251,333.22C850.553,333.22 854.184,331.643 858.147,328.49C862.109,325.337 865.971,321.592 869.735,317.257C870.959,315.847 872.158,314.424 873.333,312.987L880.378,283.951C880.774,282.243 881.104,280.601 881.368,279.024C881.632,277.579 881.797,276.167 881.863,274.787C881.929,273.408 881.83,272.258 881.566,271.339C883.811,270.288 885.792,269.499 887.509,268.974C889.226,268.448 890.613,268.054 891.669,267.791C892.99,267.397 894.113,267.2 895.037,267.2C899.263,267.2 900.65,270.813 899.197,278.039C898.669,280.141 897.877,283.229 896.82,287.302C899.329,284.148 902.004,281.159 904.843,278.335C907.682,275.51 910.555,272.981 913.46,270.747C916.366,268.514 919.304,266.74 922.276,265.426C925.247,264.113 928.186,263.456 931.091,263.456C933.336,263.456 935.218,264.113 936.737,265.426C938.256,266.74 939.444,268.481 940.303,270.649C941.161,272.817 941.657,275.379 941.789,278.335C941.921,281.291 941.789,284.345 941.392,287.499C943.505,284.74 945.85,281.948 948.425,279.123C951,276.298 953.708,273.769 956.547,271.536C959.386,269.302 962.325,267.463 965.362,266.018C968.4,264.572 971.437,263.85 974.475,263.85C978.041,263.85 980.781,264.901 982.696,267.003C984.611,269.105 985.932,271.798 986.658,275.083C987.385,278.368 987.583,281.915 987.252,285.725C986.922,289.535 986.361,293.214 985.569,296.761L978.833,323.366C977.38,329.935 978.767,333.22 982.993,333.22C986.295,333.22 989.927,331.643 993.889,328.49C997.851,325.337 1001.71,321.592 1005.48,317.257C1006.11,316.524 1006.74,315.788 1007.37,315.048C1007.61,313.668 1007.92,312.237 1008.28,310.753C1010.13,302.739 1013.07,295.447 1017.1,288.878C1021.13,282.309 1025.52,276.692 1030.27,272.028C1035.03,267.364 1039.72,263.85 1044.34,261.485C1048.96,259.12 1052.79,258.069 1055.83,258.332C1059.39,258.989 1062.3,260.04 1064.54,261.485C1066.39,262.799 1067.62,264.737 1068.21,267.299C1068.8,269.861 1067.71,273.244 1064.94,277.448C1066.79,277.054 1068.34,276.791 1069.6,276.66C1070.85,276.528 1071.81,276.462 1072.47,276.462C1073.26,276.462 1073.79,276.528 1074.05,276.66C1074.18,276.922 1074.25,277.481 1074.25,278.335C1074.25,279.189 1074.05,280.732 1073.66,282.966C1073.26,285.199 1072.67,288.221 1071.87,292.031C1071.08,295.841 1070.03,300.768 1068.7,306.812C1068.44,307.994 1068.21,309.078 1068.01,310.063L1065.73,321.395C1065.6,322.578 1065.57,323.859 1065.63,325.238C1065.7,326.618 1065.93,327.899 1066.33,329.081C1066.72,330.263 1067.35,331.216 1068.21,331.939C1069.07,332.661 1070.29,333.022 1071.87,333.022C1073.19,333.022 1074.91,332.201 1077.03,330.559C1079.14,328.917 1081.38,326.815 1083.76,324.253C1086.14,321.691 1088.61,318.866 1091.19,315.779C1093.76,312.691 1096.17,309.702 1098.42,306.812C1100.66,303.921 1102.68,301.359 1104.46,299.126C1106.24,296.892 1107.53,295.25 1108.32,294.199C1109.38,293.017 1110.44,292.327 1111.49,292.13C1112.55,291.933 1113.34,292.228 1113.87,293.017C1114.4,293.805 1114.5,294.987 1114.17,296.564C1113.84,298.141 1112.88,299.98 1111.3,302.082C1109.45,304.71 1107.07,307.961 1104.16,311.837C1101.26,315.713 1098.25,319.589 1095.15,323.464C1092.05,327.34 1089.01,330.887 1086.04,334.106C1083.07,337.325 1080.59,339.592 1078.61,340.905C1077.29,341.694 1075.77,342.351 1074.05,342.876C1072.34,343.402 1070.59,343.73 1068.8,343.861C1067.02,343.993 1065.34,343.894 1063.75,343.566C1062.17,343.237 1060.78,342.679 1059.59,341.891C1058.4,340.971 1057.41,339.657 1056.62,337.949C1055.96,336.504 1055.33,334.599 1054.74,332.234C1054.14,329.869 1053.91,326.913 1054.05,323.366C1050.88,328.621 1047.38,332.661 1043.55,335.486C1039.72,338.311 1036.08,340.38 1032.65,341.694C1028.69,343.139 1024.73,343.993 1020.76,344.256C1018.92,344.256 1016.93,343.632 1014.82,342.383C1012.71,341.135 1010.93,339.165 1009.47,336.471C1008.31,334.323 1007.49,331.673 1007,328.521ZM696.101,269.959C694.516,269.959 692.634,270.747 690.455,272.324C688.276,273.901 686.13,276.167 684.017,279.123C681.904,282.079 679.923,285.692 678.074,289.962C676.225,294.232 674.838,299.126 673.914,304.644C675.499,303.461 677.216,302.246 679.064,300.998C680.913,299.75 682.762,298.403 684.611,296.958C690.29,292.622 694.252,288.812 696.497,285.528C698.742,282.243 699.997,279.419 700.261,277.054C700.525,274.557 700.261,272.751 699.469,271.634C698.676,270.517 697.554,269.959 696.101,269.959ZM1053.25,310.753C1053.91,308.126 1054.7,305.038 1055.63,301.491C1056.55,297.943 1057.35,294.528 1058.01,291.243C1058.67,287.958 1059.16,285.232 1059.49,283.064C1059.82,280.897 1059.72,279.878 1059.2,280.01C1058.54,280.141 1057.81,280.338 1057.02,280.601C1056.36,280.864 1055.5,281.061 1054.44,281.192C1053.38,281.324 1052.33,281.521 1051.27,281.783C1052.33,279.681 1052.95,277.941 1053.15,276.561C1053.35,275.182 1053.38,274.098 1053.25,273.309C1053.12,272.39 1052.86,271.667 1052.46,271.142C1051.01,269.959 1048.46,270.912 1044.83,273.999C1041.2,277.087 1037.01,282.769 1032.25,291.046C1030.27,294.462 1028.69,298.108 1027.5,301.983C1026.31,305.859 1025.49,309.505 1025.02,312.921C1024.56,316.337 1024.46,319.326 1024.73,321.888C1024.99,324.45 1025.52,326.125 1026.31,326.913C1027.76,328.358 1029.41,329.048 1031.26,328.982C1033.11,328.917 1034.99,328.391 1036.91,327.406C1038.82,326.42 1040.74,325.14 1042.65,323.563C1044.57,321.986 1046.29,320.344 1047.81,318.636C1049.32,316.928 1050.58,315.352 1051.57,313.906C1052.56,312.461 1053.12,311.41 1053.25,310.753ZM1227.51,298.05C1225.88,300.105 1223.92,302.467 1221.63,305.137C1217.73,309.669 1213.44,314.103 1208.75,318.439C1204.06,322.775 1199.24,326.552 1194.29,329.771C1189.34,332.99 1184.81,334.599 1180.72,334.599C1178.47,334.599 1176.16,334.271 1173.79,333.614C1171.41,332.957 1169.23,331.84 1167.25,330.263C1165.27,328.687 1163.62,326.519 1162.3,323.76C1160.98,321.001 1160.38,317.454 1160.51,313.118C1160.64,305.629 1161.96,299.06 1164.48,293.411C1166.98,287.761 1169.86,283.064 1173.09,279.32C1176.33,275.576 1179.5,272.751 1182.6,270.846C1185.7,268.941 1187.85,267.988 1189.04,267.988C1190.23,267.988 1191.09,268.317 1191.61,268.974C1192.14,269.631 1192.41,270.419 1192.41,271.339C1192.41,272.258 1192.18,273.112 1191.71,273.901C1191.25,274.689 1190.62,275.28 1189.83,275.674L1187.06,277.054C1186.27,277.448 1185.54,278.105 1184.88,279.024C1184.62,279.55 1184.38,280.601 1184.18,282.178C1183.99,283.754 1183.99,285.364 1184.18,287.006C1184.38,288.648 1184.91,290.093 1185.77,291.342C1186.63,292.59 1187.92,293.214 1189.63,293.214C1191.75,293.214 1193.69,292.688 1195.48,291.637C1197.26,290.586 1198.81,289.174 1200.13,287.4C1201.45,285.626 1202.51,283.59 1203.3,281.291C1204.1,278.992 1204.49,276.66 1204.49,274.295C1204.62,269.302 1203.2,265.361 1200.23,262.47C1197.26,259.58 1193.66,258.135 1189.43,258.135C1181.91,258.135 1175.37,260.138 1169.82,264.145C1164.28,268.153 1159.69,272.948 1156.06,278.532C1152.42,284.116 1149.68,289.929 1147.83,295.973C1145.99,302.016 1145.06,307.074 1145.06,311.147C1145.06,315.22 1145.52,319.326 1146.45,323.464C1147.37,327.603 1148.99,331.38 1151.3,334.796C1153.61,338.212 1156.72,341.004 1160.61,343.172C1164.51,345.34 1169.36,346.423 1175.17,346.423C1179.4,346.423 1183.69,345.471 1188.05,343.566C1192.41,341.661 1196.63,339.23 1200.73,336.274C1204.82,333.318 1208.75,330.034 1212.51,326.421C1216.28,322.807 1219.64,319.26 1222.62,315.779C1224.84,313.175 1226.84,310.719 1228.62,308.41C1228.96,308.128 1229.3,307.792 1229.65,307.403C1230.31,306.615 1231.5,305.137 1233.21,302.969C1234.93,300.801 1236.75,298.436 1238.66,295.874C1240.58,293.312 1242.36,290.849 1244.01,288.484C1245.66,286.119 1246.82,284.411 1247.48,283.36C1247.74,283.886 1248.11,284.838 1248.57,286.218C1249.03,287.597 1249.53,289.009 1250.05,290.455C1250.58,292.163 1251.24,294.002 1252.04,295.973C1252.96,298.6 1254.08,301.491 1255.4,304.644C1256.72,307.797 1257.94,310.917 1259.07,314.005C1260.19,317.092 1261.02,319.983 1261.54,322.676C1262.07,325.369 1262.07,327.439 1261.54,328.884C1261.02,330.329 1260.19,331.512 1259.07,332.431C1257.94,333.351 1256.76,334.074 1255.5,334.599C1254.25,335.125 1252.99,335.387 1251.74,335.387C1250.48,335.387 1249.46,335.125 1248.67,334.599C1248.01,334.074 1247.28,333.088 1246.49,331.643C1245.83,330.329 1244.97,328.523 1243.91,326.223C1242.86,323.924 1241.67,320.738 1240.35,316.665L1236.19,318.045C1235,318.439 1234.07,318.833 1233.41,319.227C1232.62,319.753 1231.96,320.213 1231.43,320.607C1230.11,321.789 1229.12,322.84 1228.46,323.76C1227.8,324.68 1227.07,325.928 1226.28,327.504C1225.62,328.687 1225.72,330.395 1226.58,332.628C1227.44,334.862 1228.76,337.128 1230.54,339.427C1232.32,341.727 1234.5,343.73 1237.08,345.438C1239.65,347.146 1242.33,348 1245.1,348C1249.06,348 1252.86,346.949 1256.49,344.847C1260.12,342.745 1263.36,340.216 1266.2,337.26C1269.04,334.303 1271.41,331.249 1273.33,328.096C1275.25,324.942 1276.4,322.249 1276.8,320.016C1277.06,318.57 1276.86,316.797 1276.2,314.695C1275.54,312.593 1274.68,310.326 1273.63,307.896C1272.57,305.465 1271.38,303.002 1270.06,300.505C1268.74,298.009 1267.49,295.579 1266.3,293.214C1265.37,291.374 1264.52,289.338 1263.72,287.104C1263.06,285.265 1262.37,283.097 1261.64,280.601C1260.92,278.105 1260.36,275.346 1259.96,272.324C1261.94,269.959 1263.46,268.021 1264.52,266.51C1265.57,264.999 1266.36,263.718 1266.89,262.667C1267.42,261.616 1267.82,260.762 1268.08,260.105C1268.35,258.792 1267.95,257.511 1266.89,256.262C1265.84,255.014 1264.45,253.865 1262.73,252.814C1260.62,251.763 1258.24,251.73 1255.6,252.715C1252.96,253.701 1250.38,255.179 1247.88,257.149C1245.37,259.12 1243.19,261.321 1241.34,263.751C1239.49,266.182 1238.3,268.317 1237.77,270.156C1237.11,272.39 1237.28,274.36 1238.27,276.068C1239.26,277.776 1239.62,279.156 1239.36,280.207C1239.22,280.601 1238.5,281.751 1237.18,283.656C1235.86,285.561 1234.4,287.728 1232.82,290.159C1231.23,292.59 1229.65,294.955 1228.07,297.254C1227.88,297.528 1227.69,297.794 1227.51,298.05ZM1117.99,326.322C1121.42,325.796 1124.16,326.092 1126.21,327.209C1128.26,328.326 1129.15,330.395 1128.88,333.417C1128.75,335.125 1128.06,336.734 1126.8,338.245C1125.55,339.756 1124.03,341.102 1122.25,342.285C1120.46,343.467 1118.58,344.387 1116.6,345.044C1114.62,345.701 1112.9,346.029 1111.45,346.029C1108.81,346.029 1106.46,345.438 1104.42,344.256C1102.37,343.073 1101.48,341.168 1101.74,338.54C1101.88,336.833 1102.44,335.289 1103.43,333.909C1104.42,332.53 1105.67,331.314 1107.19,330.263C1108.71,329.212 1110.43,328.358 1112.34,327.701C1114.26,327.045 1116.14,326.585 1117.99,326.322ZM1315.76,334.599C1316.55,335.125 1317.57,335.387 1318.83,335.387C1320.08,335.387 1321.34,335.125 1322.59,334.599C1323.85,334.074 1325.03,333.351 1326.16,332.431C1327.28,331.512 1328.11,330.329 1328.63,328.884C1329.16,327.439 1329.16,325.369 1328.63,322.676C1328.11,319.983 1327.28,317.092 1326.16,314.005C1325.03,310.917 1323.81,307.797 1322.49,304.644C1321.17,301.491 1320.05,298.6 1319.12,295.973C1318.33,294.002 1317.67,292.163 1317.14,290.455C1316.62,289.009 1316.12,287.597 1315.66,286.218C1315.19,284.838 1314.83,283.886 1314.57,283.36C1313.91,284.411 1312.75,286.119 1311.1,288.484C1309.45,290.849 1307.67,293.312 1305.75,295.874C1303.84,298.436 1302.02,300.801 1300.31,302.969C1298.59,305.137 1297.4,306.615 1296.74,307.403C1295.68,308.585 1294.66,309.275 1293.67,309.472C1292.68,309.669 1291.85,309.472 1291.19,308.881C1290.53,308.29 1290.17,307.436 1290.1,306.319C1290.04,305.202 1290.53,303.856 1291.59,302.279C1292.38,301.228 1293.57,299.553 1295.15,297.254C1296.74,294.955 1298.32,292.59 1299.91,290.159C1301.49,287.728 1302.95,285.561 1304.27,283.656C1305.59,281.751 1306.31,280.601 1306.45,280.207C1306.71,279.156 1306.35,277.776 1305.36,276.068C1304.37,274.36 1304.2,272.39 1304.86,270.156C1305.39,268.317 1306.58,266.182 1308.43,263.751C1310.28,261.321 1312.45,259.12 1314.96,257.149C1317.47,255.179 1320.05,253.701 1322.69,252.715C1325.33,251.73 1327.71,251.763 1329.82,252.814C1331.54,253.865 1332.92,255.014 1333.98,256.262C1335.04,257.511 1335.43,258.792 1335.17,260.105C1334.91,260.762 1334.51,261.616 1333.98,262.667C1333.45,263.718 1332.66,264.999 1331.61,266.51C1330.55,268.021 1329.03,269.959 1327.05,272.324C1327.44,275.346 1328.01,278.105 1328.73,280.601C1329.46,283.097 1330.15,285.265 1330.81,287.104C1331.61,289.338 1332.46,291.374 1333.39,293.214C1334.58,295.579 1335.83,298.009 1337.15,300.505C1338.47,303.002 1339.66,305.465 1340.72,307.896C1341.77,310.326 1342.63,312.593 1343.29,314.695C1343.95,316.797 1344.15,318.57 1343.89,320.016C1343.49,322.249 1342.34,324.942 1340.42,328.096C1338.51,331.249 1336.13,334.303 1333.29,337.26C1330.45,340.216 1327.21,342.745 1323.58,344.847C1319.95,346.949 1316.15,348 1312.19,348C1309.42,348 1306.74,347.146 1304.17,345.438C1301.59,343.73 1299.41,341.727 1297.63,339.427C1295.85,337.128 1294.53,334.862 1293.67,332.628C1292.81,330.395 1292.71,328.687 1293.37,327.504C1294.16,325.928 1294.89,324.68 1295.55,323.76C1296.21,322.84 1297.2,321.789 1298.52,320.607C1299.05,320.213 1299.71,319.753 1300.5,319.227C1301.16,318.833 1302.09,318.439 1303.28,318.045L1307.44,316.665C1308.76,320.738 1309.95,323.924 1311,326.223C1312.06,328.523 1312.92,330.329 1313.58,331.643C1314.37,333.088 1315.1,334.074 1315.76,334.599Z" style="fill:rgb(114,129,132);"/>
</svg>
